# xmcd CD database file
#
# Track frame offsets:
#	150
#	13068
#	25265
#	36145
#	46780
#	57238
#	68543
#	80675
#	92203
#	104740
#	115490
#	126535
#	139353
#	149710
#	163598
#	176870
#
# Disc length: 2521 seconds
#
# Revision: 1
# Processed by: cddbd v1.4PL0 Copyright (c) Steve Scherf et al.
# Submitted via: CDex 1.40Release
#
DISCID=f209d710
DTITLE=Jimmy Reed - Greatest Hits
DYEAR=1992
DGENRE=Blues
TTITLE0=The Sun Is Shining
TTITLE1=Honest I Do
TTITLE2=Down In Virginia
TTITLE3=Baby What You Want Me To Do
TTITLE4=Found Love
TTITLE5=Hush Hush
TTITLE6=Bright Lights, Big City
TTITLE7=Close Together
TTITLE8=Big Boss Man
TTITLE9=Aw Shucks, Hush Your Mouth
TTITLE10=Good Lover
TTITLE11=Shame, Shame, Shame
TTITLE12=I Ain't Got You
TTITLE13=Down in Virginia
TTITLE14=I'm Forty Upside Your Head
TTITLE15=Pretty Ring
EXTD=YEAR: 1992 ID3G: 0
EXTT0=
EXTT1=
EXTT2=
EXTT3=
EXTT4=
EXTT5=
EXTT6=
EXTT7=
EXTT8=
EXTT9=
EXTT10=
EXTT11=
EXTT12=
EXTT13=
EXTT14=
EXTT15=
PLAYORDER=
